<svg width="36" height="22" viewBox="0 0 36 22" fill="none" xmlns="http://www.w3.org/2000/svg">
<path d="M26.125 2.375V19C26.125 19.6299 25.8748 20.234 25.4294 20.6794C24.984 21.1248 24.3799 21.375 23.75 21.375H2.375C1.74511 21.375 1.14102 21.1248 0.695621 20.6794C0.250222 20.234 0 19.6299 0 19V2.375C0 1.74511 0.250222 1.14102 0.695621 0.695621C1.14102 0.250222 1.74511 0 2.375 0H23.75C24.3799 0 24.984 0.250222 25.4294 0.695621C25.8748 1.14102 26.125 1.74511 26.125 2.375ZM34.7344 2.41211C34.5668 2.37111 34.3925 2.36606 34.2229 2.39727C34.0533 2.42848 33.8922 2.49526 33.7502 2.5932L28.7642 5.91672C28.6829 5.97098 28.6162 6.0445 28.5701 6.13073C28.524 6.21696 28.4999 6.31324 28.5 6.41102V14.964C28.4999 15.0618 28.524 15.158 28.5701 15.2443C28.6162 15.3305 28.6829 15.404 28.7642 15.4583L33.7784 18.8011C33.9661 18.9263 34.1856 18.9954 34.4111 19.0004C34.6367 19.0054 34.859 18.9461 35.052 18.8293C35.2306 18.7158 35.3771 18.5583 35.4774 18.3719C35.5778 18.1856 35.6286 17.9766 35.625 17.765V3.5625C35.6251 3.29913 35.5377 3.0432 35.3765 2.83495C35.2153 2.6267 34.9894 2.47795 34.7344 2.41211Z" fill="#3059E9"/>
</svg>
