<svg width="83" height="42" viewBox="0 0 83 42" fill="none" xmlns="http://www.w3.org/2000/svg">
<g clip-path="url(#clip0_3116_19215)">
<path d="M55.4333 16.2841C55.3514 16.6407 55.247 16.9011 55.121 17.0657C54.995 17.2297 54.8367 17.3437 54.6453 17.4067C54.3867 17.4971 54.1307 17.4545 53.8789 17.4545H50.3845L53.1976 13.5793L52.797 13.0467L50.3955 9.72067H53.7353C54.4883 9.72067 54.6133 9.68784 54.7598 9.78844C54.9006 9.88498 54.9577 10.0225 54.9983 10.1672C55.0389 10.3118 55.0526 10.4777 55.0754 10.6731H55.2692L55.1368 8.95312H48.7561V9.14186L52.0998 13.6833L48.7561 18.2562V18.4448H55.3099L55.6273 16.3262L55.4333 16.2841Z" fill="#111827"/>
<path d="M11.146 16.9319C11.4452 17.2754 11.7944 17.5312 12.1948 17.6983C12.5951 17.8654 13.0373 17.9493 13.5225 17.9493C13.9996 17.9493 14.4419 17.8654 14.8502 17.6983C15.2578 17.5312 15.6135 17.2733 15.9167 16.9253C16.22 16.5777 16.457 16.1373 16.6259 15.6045C16.7958 15.0721 16.8807 14.44 16.8807 13.7094C16.8807 13.0752 16.8184 12.5202 16.693 12.0447C16.5677 11.5694 16.3875 11.1556 16.1537 10.803L11.146 16.9319ZM15.9354 10.5127C15.6362 10.1428 15.2803 9.87664 14.868 9.71362C14.4556 9.5506 14.0076 9.46893 13.5225 9.46893C13.0534 9.46893 12.6153 9.55271 12.2069 9.72025C11.7985 9.88731 11.4427 10.1448 11.1395 10.4928C10.8363 10.8408 10.6003 11.2807 10.4305 11.8136C10.2605 12.3465 10.1757 12.9782 10.1757 13.7094C10.1757 14.3521 10.2428 14.9178 10.3762 15.4062C10.5096 15.8952 10.6931 16.307 10.9276 16.6416L15.9354 10.5127ZM8.98779 13.7094C8.98779 12.9607 9.09863 12.2939 9.32095 11.708C9.54342 11.1222 9.85465 10.6272 10.255 10.2221C10.6551 9.8168 11.134 9.50872 11.6918 9.29718C12.249 9.08613 12.8593 8.98036 13.5225 8.98036C14.7022 8.98036 15.6726 9.28861 16.4327 9.90478C16.5046 9.82554 16.5961 9.72025 16.7052 9.58796C16.8144 9.45599 16.9235 9.32176 17.0327 9.18527C17.1418 9.04877 17.2389 8.91907 17.3239 8.79551C17.4087 8.67227 17.4629 8.58397 17.4871 8.53125C17.5842 8.65481 17.6974 8.76009 17.8268 8.84807C17.7783 8.88381 17.7054 8.95384 17.6085 9.05961C17.5113 9.16537 17.4087 9.2823 17.2996 9.40958C17.1905 9.53734 17.0812 9.66704 16.9721 9.7995C16.8628 9.9313 16.7716 10.0416 16.6987 10.1296C17.1353 10.5347 17.4725 11.0344 17.7111 11.6288C17.9497 12.2229 18.0693 12.9167 18.0693 13.7094C18.0693 14.4578 17.9577 15.1246 17.7354 15.7102C17.5129 16.2958 17.2025 16.7914 16.8023 17.1962C16.402 17.6013 15.9231 17.9027 15.3653 18.101C14.8073 18.2993 14.1927 18.3984 13.5225 18.3984C12.3824 18.3984 11.425 18.1122 10.6487 17.5395C10.5678 17.6365 10.4733 17.7489 10.3641 17.8767C10.255 18.0045 10.1474 18.1296 10.0423 18.2529C9.93711 18.3764 9.84251 18.4976 9.75769 18.6161C9.6727 18.7351 9.60964 18.8343 9.57006 18.9133C9.48035 18.7898 9.36793 18.6845 9.23044 18.5965C9.27081 18.5609 9.33719 18.4929 9.43005 18.3918C9.52308 18.2901 9.62414 18.1802 9.73341 18.0615C9.84251 17.9427 9.95335 17.8128 10.0664 17.6718C10.1798 17.5312 10.2808 17.4077 10.3698 17.3019C9.93301 16.9059 9.59434 16.4082 9.35169 15.8094C9.1092 15.2105 8.98779 14.5105 8.98779 13.7094Z" fill="#111827"/>
<path d="M1.38914 7.1931C1.35603 6.33207 1.31992 5.45374 1.28003 4.55859C1.87523 4.58576 2.4668 4.60938 3.05521 4.62975C3.64347 4.65013 4.23536 4.66032 4.8304 4.66032C5.42528 4.66032 6.02694 4.65013 6.63523 4.62975C7.24335 4.60938 7.90461 4.58576 8.61869 4.55859C8.5788 4.76188 8.55909 4.96549 8.55909 5.16894C8.55909 5.37223 8.5788 5.57568 8.61869 5.77929C8.26142 5.73838 7.83193 5.70134 7.32928 5.66722C6.82664 5.63358 6.31469 5.60625 5.79218 5.58587C5.26982 5.56566 4.76749 5.54867 4.28503 5.53509C3.80225 5.52167 3.4024 5.51471 3.08501 5.51471C3.07177 5.98954 3.06168 6.44398 3.05521 6.87757C3.04844 7.31196 3.04512 7.74603 3.04512 8.17962C3.04512 8.6546 3.04844 9.09223 3.05521 9.49202C3.06168 9.89229 3.06531 10.3094 3.06531 10.7431C3.93784 10.7431 4.8006 10.7297 5.65327 10.7024C6.50641 10.6755 7.34931 10.6212 8.18242 10.5397C8.12945 10.7431 8.1028 10.9467 8.1028 11.15C8.1028 11.3535 8.12945 11.5569 8.18242 11.7605C7.85164 11.7196 7.47828 11.6892 7.06156 11.6687C6.64532 11.6483 6.21173 11.6316 5.76269 11.6181C5.31302 11.6046 4.85673 11.5977 4.39413 11.5977H3.06531V13.3268C3.06531 14.2222 3.08155 15.1037 3.11466 15.9714C3.14745 16.8398 3.18403 17.6942 3.22392 18.5349C2.91962 18.5077 2.59577 18.4943 2.2519 18.4943C1.90802 18.4943 1.58417 18.5077 1.28003 18.5349C1.31992 17.6942 1.35603 16.8398 1.38914 15.9714C1.42225 15.1037 1.43864 14.2222 1.43864 13.3268V9.82776C1.43864 8.93261 1.42225 8.05444 1.38914 7.1931Z" fill="#111827"/>
<path d="M19.7085 15.4624C19.7085 14.7438 19.7183 14.1301 19.7381 13.6211C19.758 13.1127 19.7679 12.6078 19.7679 12.1058C19.7679 11.6311 19.7645 11.1158 19.758 10.5595C19.7512 10.0037 19.7414 9.44053 19.7284 8.87109C20.0588 8.93886 20.3362 8.9725 20.5613 8.9725C20.7726 8.9725 21.0439 8.93886 21.3744 8.87109C21.3084 9.68473 21.2587 10.5766 21.2259 11.5464C21.1925 12.5162 21.1762 13.5094 21.1762 14.5268C21.1762 15.2321 21.2355 15.7713 21.3547 16.144C21.4738 16.517 21.6191 16.7985 21.7911 16.9882C21.9761 17.2053 22.2107 17.3851 22.4953 17.5276C22.7792 17.6697 23.113 17.7409 23.4966 17.7409C24.0521 17.7409 24.5149 17.6157 24.8851 17.3647C25.255 17.1137 25.5261 16.8053 25.6982 16.4389C25.7907 16.2086 25.8634 16.0117 25.9165 15.849C25.969 15.6864 26.0122 15.4693 26.0453 15.1981C26.0781 14.9267 26.098 14.5607 26.1048 14.0993C26.1112 13.6384 26.1147 13.0077 26.1147 12.2073V10.4985C26.1147 10.2003 26.1112 9.91551 26.1048 9.64382C26.098 9.37293 26.0882 9.11498 26.0751 8.87109C26.2205 8.89826 26.3591 8.92188 26.4915 8.94225C26.6237 8.96247 26.7624 8.9725 26.9081 8.9725C27.0535 8.9725 27.1924 8.96247 27.3248 8.94225C27.4566 8.92188 27.5889 8.89826 27.7212 8.87109C27.6551 9.92878 27.6152 10.9496 27.6022 11.9327C27.5889 12.9162 27.5825 13.957 27.5825 15.0556C27.5825 15.666 27.5889 16.2627 27.6022 16.8459C27.6152 17.4291 27.6353 17.9921 27.6619 18.5343C27.3972 18.5072 27.1392 18.4937 26.8884 18.4937C26.6369 18.4937 26.3793 18.5072 26.1147 18.5343C26.1278 18.4122 26.1379 18.2837 26.1447 18.148C26.1511 18.0124 26.1545 17.87 26.1545 17.7207V16.8459H26.1147C25.7708 17.4969 25.328 17.9749 24.786 18.2801C24.2435 18.5853 23.6552 18.7381 23.0206 18.7381C21.9893 18.7381 21.1792 18.4564 20.5913 17.8936C20.0025 17.3308 19.7085 16.5204 19.7085 15.4624Z" fill="#111827"/>
<path d="M35.4378 10.5073C35.054 9.98537 34.5253 9.72402 33.851 9.72402C32.9253 9.72402 32.2475 10.0159 31.8179 10.5988C31.3882 11.1821 31.1735 12.0027 31.1735 13.0607V14.7897C31.1735 15.4001 31.1832 16.0408 31.203 16.7125C31.2231 17.3838 31.2657 17.9908 31.3321 18.533C31.0278 18.5059 30.7303 18.4924 30.4395 18.4924C30.1485 18.4924 29.8509 18.5059 29.5471 18.533C29.613 17.9908 29.6562 17.3838 29.6759 16.7125C29.6958 16.0408 29.7059 15.4001 29.7059 14.7897V12.674C29.7059 12.0635 29.6958 11.4228 29.6759 10.7515C29.6562 10.0801 29.613 9.45281 29.5471 8.86979C29.9172 8.93755 30.2147 8.97119 30.4395 8.97119C30.5453 8.97119 30.6609 8.96116 30.7867 8.94095C30.9122 8.92057 31.0609 8.89696 31.2329 8.86979C31.1932 9.41222 31.1735 9.95496 31.1735 10.4972H31.213C31.5831 9.91421 32.0263 9.46316 32.5419 9.14424C33.0578 8.8258 33.6725 8.66602 34.3864 8.66602C34.7565 8.66602 35.1301 8.72068 35.5071 8.82887C35.884 8.93755 36.2244 9.12402 36.5287 9.38828C36.8326 9.65286 37.0805 10.0122 37.2724 10.4667C37.4638 10.9213 37.5598 11.5011 37.5598 12.206C37.5598 12.7894 37.5466 13.3895 37.5202 14.0065C37.4936 14.624 37.4807 15.278 37.4807 15.9695V17.2923C37.4807 17.5093 37.4837 17.7229 37.4904 17.933C37.4969 18.1433 37.507 18.3433 37.5202 18.533C37.2555 18.5059 36.9777 18.4924 36.6873 18.4924C36.4095 18.4924 36.1383 18.5059 35.8739 18.533C35.9005 17.8281 35.93 17.1022 35.9634 16.3564C35.9962 15.6105 36.0128 14.8442 36.0128 14.0574V12.8164C36.0128 11.7993 35.8209 11.0298 35.4378 10.5073Z" fill="#111827"/>
<path d="M40.4524 13.9146C40.4524 14.7284 40.5347 15.3997 40.7003 15.9286C40.8653 16.4574 41.0773 16.8818 41.3349 17.2004C41.5928 17.5191 41.8869 17.7392 42.2175 17.8613C42.548 17.9834 42.8723 18.0444 43.1895 18.0444C43.7053 18.0444 44.1482 17.9123 44.5184 17.6477C44.8882 17.3834 45.1959 17.0375 45.4406 16.6102C45.6851 16.183 45.8636 15.6983 45.9762 15.1555C46.0883 14.6132 46.1447 14.0708 46.1447 13.5279C46.1447 12.2259 45.9 11.2327 45.4109 10.5478C44.9214 9.8629 44.201 9.52037 43.249 9.52037C42.773 9.52037 42.3597 9.63212 42.0094 9.85595C41.6587 10.0798 41.3677 10.3921 41.1365 10.7918C40.9054 11.1921 40.7331 11.6598 40.6211 12.1956C40.5084 12.7314 40.4524 13.3042 40.4524 13.9146ZM46.0853 16.5999C45.9792 16.8172 45.8374 17.0511 45.6588 17.3019C45.4805 17.5531 45.2553 17.7871 44.9843 18.0038C44.7134 18.2208 44.3925 18.3975 44.0227 18.5327C43.652 18.6682 43.2223 18.7364 42.7334 18.7364C42.2306 18.7364 41.738 18.6478 41.2557 18.4717C40.773 18.2956 40.3433 18.0074 39.9665 17.6071C39.5895 17.2073 39.2852 16.6914 39.0542 16.061C38.8226 15.4303 38.707 14.6745 38.707 13.7925C38.707 12.9248 38.8325 12.172 39.084 11.5343C39.3349 10.897 39.6622 10.3644 40.0655 9.93745C40.4688 9.51002 40.9251 9.19158 41.4342 8.98117C41.943 8.77109 42.4557 8.66565 42.9713 8.66565C44.4389 8.66565 45.4571 9.34425 46.0257 10.7002H46.0654V8.70657C46.0654 8.19131 46.0619 7.6725 46.0555 7.15029C46.0487 6.6284 46.0421 6.1298 46.0356 5.65498C46.0288 5.18031 46.0224 4.73266 46.0159 4.31233C46.0091 3.89201 45.999 3.51891 45.9859 3.19336C46.1447 3.22053 46.2965 3.2443 46.4422 3.26452C46.5876 3.2849 46.733 3.29492 46.8787 3.29492C47.024 3.29492 47.1661 3.2849 47.305 3.26452C47.4439 3.2443 47.599 3.22053 47.7712 3.19336C47.7313 3.62759 47.6982 4.25476 47.672 5.07519C47.6454 5.89578 47.6224 6.80112 47.6025 7.79104C47.5828 8.78112 47.5659 9.79853 47.5528 10.8426C47.5396 11.887 47.5331 12.8433 47.5331 13.7113C47.5331 14.6469 47.5396 15.4882 47.5528 16.2339C47.5659 16.9799 47.5792 17.7465 47.5924 18.5327C47.328 18.5055 47.0701 18.4921 46.8192 18.4921C46.5811 18.4921 46.3297 18.5055 46.0654 18.5327L46.1248 16.5999H46.0853Z" fill="#111827"/>
<path d="M61.2202 10.3142C61.0285 10.2462 60.8335 10.2123 60.6351 10.2123C60.3179 10.2123 60.0333 10.2871 59.7824 10.4361C59.531 10.5854 59.3195 10.7854 59.1478 11.0364C58.9758 11.2874 58.8434 11.5856 58.751 11.9314C58.6584 12.2772 58.6121 12.647 58.6121 13.04V15.278C58.6121 16.1869 58.6154 16.8821 58.6222 17.3634C58.6286 17.845 58.652 18.2351 58.6915 18.533C58.4268 18.5059 58.1624 18.4924 57.8981 18.4924C57.6072 18.4924 57.3294 18.5059 57.0652 18.533C57.1049 18.0724 57.1276 17.4448 57.1344 16.6512C57.1409 15.8578 57.1445 14.8848 57.1445 13.7319V13.0809C57.1445 12.5518 57.1409 11.9418 57.1344 11.2497C57.1276 10.5582 57.1049 9.76478 57.0652 8.86979C57.2104 8.89696 57.3491 8.92057 57.4816 8.94095C57.6137 8.96116 57.7526 8.97119 57.8981 8.97119C58.0172 8.97119 58.1425 8.96116 58.275 8.94095C58.4069 8.92057 58.5458 8.89696 58.6915 8.86979C58.6384 9.35804 58.6088 9.7444 58.6023 10.0292C58.5955 10.3142 58.5922 10.5854 58.5922 10.843L58.6319 10.8634C59.4119 9.39863 60.2848 8.66602 61.25 8.66602C61.3692 8.66602 61.4714 8.67329 61.5573 8.68672C61.6434 8.7003 61.7523 8.73426 61.8848 8.78828C61.8182 8.95098 61.7787 9.19858 61.7656 9.53076C61.7523 9.86327 61.7459 10.165 61.7459 10.4361L61.607 10.5378C61.5408 10.4566 61.4118 10.3821 61.2202 10.3142Z" fill="#111827"/>
<path d="M14.342 24.3554C14.3089 23.4943 14.2728 22.616 14.2329 21.7207C14.4046 21.748 14.5702 21.7716 14.7288 21.792C14.8874 21.8122 15.0462 21.8226 15.2048 21.8226C15.3634 21.8226 15.5222 21.8122 15.6808 21.792C15.8394 21.7716 16.0046 21.748 16.1768 21.7207C16.1369 22.616 16.1003 23.4943 16.0675 24.3554C16.0344 25.2167 16.0182 26.0947 16.0182 26.99C16.0182 28.6988 16.0247 30.1809 16.0379 31.435C16.051 32.6897 16.0642 33.8122 16.0776 34.8022C17.0164 34.8022 17.9153 34.7918 18.775 34.7716C19.6343 34.7512 20.56 34.6733 21.5519 34.5376C21.4853 34.7818 21.4525 34.9852 21.4525 35.1479C21.4525 35.2974 21.4853 35.4804 21.5519 35.6971C20.9433 35.6698 20.3351 35.6565 19.727 35.6565H16.0675C15.4793 35.6565 14.8675 35.6698 14.2329 35.6971C14.2728 34.8565 14.3089 34.0019 14.342 33.1338C14.375 32.266 14.3915 31.3843 14.3915 30.4891V26.99C14.3915 26.0947 14.375 25.2167 14.342 24.3554Z" fill="#111827"/>
<path d="M22.7986 29.8405C22.7986 29.2302 22.7886 28.5896 22.7688 27.9183C22.7489 27.2468 22.7059 26.6195 22.6399 26.0363C23.0098 26.1042 23.3074 26.1378 23.5322 26.1378C23.7572 26.1378 24.0547 26.1042 24.4249 26.0363C24.3587 26.6195 24.3158 27.2468 24.2961 27.9183C24.2762 28.5896 24.2663 29.2302 24.2663 29.8405V31.9564C24.2663 32.5667 24.2762 33.2075 24.2961 33.8791C24.3158 34.5503 24.3587 35.1574 24.4249 35.6997C24.1206 35.6723 23.8231 35.6591 23.5322 35.6591C23.2415 35.6591 22.9439 35.6723 22.6399 35.6997C22.7059 35.1574 22.7489 34.5503 22.7688 33.8791C22.7886 33.2075 22.7986 32.5667 22.7986 31.9564V29.8405ZM22.5208 22.4964C22.5208 22.2117 22.6201 21.9676 22.8184 21.7638C23.0166 21.5605 23.2549 21.459 23.5322 21.459C23.81 21.459 24.0481 21.5605 24.2464 21.7638C24.4446 21.9676 24.544 22.2117 24.544 22.4964C24.544 22.7812 24.4446 23.0253 24.2464 23.2287C24.0481 23.4324 23.81 23.5339 23.5322 23.5339C23.2549 23.5339 23.0166 23.4324 22.8184 23.2287C22.6201 23.0253 22.5208 22.7812 22.5208 22.4964Z" fill="#111827"/>
<path d="M32.2816 29.0463C32.2816 28.1919 32.0834 27.541 31.6865 27.0933C31.29 26.6457 30.7673 26.422 30.1196 26.422C29.4059 26.422 28.8504 26.6696 28.4539 27.1645C28.057 27.6597 27.8587 28.3211 27.8587 29.1482C27.8587 30.0026 28.0404 30.6775 28.4042 31.1725C28.7676 31.6677 29.3329 31.915 30.0999 31.915C30.4834 31.915 30.8105 31.837 31.0817 31.681C31.3527 31.5252 31.5776 31.3148 31.7559 31.0502C31.9345 30.7857 32.0665 30.4808 32.1527 30.1347C32.2385 29.7888 32.2816 29.4264 32.2816 29.0463ZM33.3528 37.8555C33.3528 37.0418 33.1211 36.4721 32.6584 36.1465C32.1953 35.821 31.4289 35.6583 30.3579 35.6583C29.3663 35.6583 28.5991 35.824 28.057 36.1567C27.5148 36.4891 27.2438 37.0891 27.2438 37.957C27.2438 38.4181 27.3197 38.8114 27.4719 39.137C27.6237 39.4625 27.8289 39.7271 28.0868 39.9304C28.3447 40.134 28.652 40.283 29.009 40.3781C29.3663 40.4728 29.7494 40.5205 30.1595 40.5205C30.556 40.5205 30.9458 40.4662 31.3296 40.3577C31.7129 40.249 32.0536 40.0861 32.3511 39.8694C32.6486 39.6526 32.8897 39.3776 33.0749 39.0454C33.2599 38.7129 33.3528 38.3162 33.3528 37.8555ZM26.3116 29.1482C26.3116 28.5784 26.4108 28.0871 26.6091 27.6731C26.8075 27.2597 27.0818 26.9172 27.4323 26.6457C27.7825 26.3748 28.1861 26.1713 28.642 26.0355C29.0982 25.9001 29.5842 25.832 30.0999 25.832C30.3511 25.832 30.5923 25.8391 30.8238 25.8526C31.0552 25.8662 31.3494 25.8865 31.7064 25.9135C32.0104 25.9407 32.2816 25.9609 32.5195 25.9744C32.7576 25.9879 32.9491 25.9947 33.0948 25.9947C33.8352 25.9947 34.3707 25.9609 34.7013 25.8932C34.6881 25.9609 34.6783 26.0322 34.6718 26.1068C34.6647 26.1814 34.6617 26.2525 34.6617 26.3203C34.6617 26.3884 34.6647 26.4595 34.6718 26.5338C34.6783 26.6086 34.6881 26.68 34.7013 26.7476C34.3177 26.7205 33.9443 26.69 33.5809 26.656C33.2169 26.6224 32.8569 26.5984 32.4998 26.5847L32.46 26.6253C32.87 26.8564 33.2005 27.2124 33.4518 27.6935C33.7028 28.1749 33.8288 28.6735 33.8288 29.1888C33.8288 30.206 33.4945 31.003 32.8271 31.5791C32.1592 32.156 31.2632 32.4438 30.1395 32.4438C29.9542 32.4438 29.7727 32.4372 29.5943 32.4235C29.4156 32.4102 29.2338 32.4032 29.0489 32.4032C28.8107 32.4032 28.5891 32.4917 28.3843 32.6678C28.179 32.8443 28.0767 33.0678 28.0767 33.3391C28.0767 33.6919 28.1592 33.9493 28.3247 34.112C28.4898 34.2747 28.7974 34.3632 29.2471 34.3766C29.617 34.3902 29.9809 34.4005 30.338 34.4072C30.6949 34.4141 31.0584 34.4242 31.4289 34.4376C32.0367 34.4513 32.5559 34.5259 32.9857 34.6614C33.4154 34.7973 33.7659 34.9803 34.037 35.2106C34.3078 35.4416 34.5059 35.7055 34.6319 36.004C34.7574 36.3023 34.8203 36.6278 34.8203 36.9805C34.8203 37.4552 34.7311 37.9368 34.5526 38.4251C34.3741 38.9133 34.0965 39.354 33.7197 39.7473C33.3427 40.1408 32.8569 40.4662 32.2619 40.7238C31.6667 40.9815 30.9529 41.1105 30.1196 41.1105C28.837 41.1105 27.8255 40.8492 27.0851 40.3271C26.3444 39.8051 25.9744 39.0894 25.9744 38.181C25.9744 37.828 26.0371 37.5024 26.1629 37.2045C26.2886 36.906 26.4504 36.6414 26.6487 36.4111C26.8474 36.1802 27.0719 35.9971 27.3234 35.8616C27.5742 35.7259 27.8322 35.6246 28.0969 35.5564V35.5158C27.6868 35.3937 27.3759 35.1902 27.1646 34.9054C26.9527 34.6208 26.8474 34.282 26.8474 33.8884C26.8474 33.6579 26.8899 33.4477 26.976 33.2576C27.0618 33.0678 27.1711 32.8984 27.3035 32.749C27.4353 32.5999 27.5875 32.4778 27.7595 32.3829C27.9312 32.2881 28.0969 32.2271 28.2555 32.1998V32.159C27.6471 31.888 27.1711 31.5049 26.8275 31.0097C26.4833 30.5148 26.3116 29.8944 26.3116 29.1482Z" fill="#111827"/>
<path d="M36.1423 24.713C36.1356 24.1706 36.1255 23.6348 36.1124 23.1058C36.0991 22.5766 36.0829 22.0717 36.0629 21.5903C36.043 21.1088 36.02 20.6985 35.9937 20.3594C36.3637 20.4273 36.6612 20.4609 36.8861 20.4609C37.1109 20.4609 37.4081 20.4273 37.7786 20.3594C37.752 20.6985 37.7289 21.1053 37.7092 21.5799C37.6894 22.0547 37.6725 22.5533 37.6596 23.0752C37.6462 23.5974 37.6362 24.123 37.6296 24.6519C37.6228 25.1807 37.62 25.669 37.62 26.1166V27.6629H37.6596C38.0295 27.0797 38.4727 26.6288 38.9884 26.31C39.5041 25.9915 40.119 25.8318 40.833 25.8318C41.2029 25.8318 41.5767 25.8863 41.9537 25.9945C42.3303 26.1032 42.6709 26.2897 42.975 26.5539C43.2792 26.8185 43.527 27.178 43.7189 27.6323C43.9103 28.0869 44.0064 28.6667 44.0064 29.3717C44.0064 29.955 43.9931 30.5552 43.9668 31.1723C43.9401 31.7895 43.927 32.4436 43.927 33.1353V34.4579C43.927 34.6748 43.93 34.8886 43.9368 35.0985C43.9434 35.3089 43.9534 35.509 43.9668 35.6987C43.7021 35.6713 43.4242 35.6581 43.1338 35.6581C42.856 35.6581 42.5848 35.6713 42.3204 35.6987C42.3469 34.9937 42.3765 34.2679 42.4098 33.522C42.4428 32.7761 42.4593 32.0099 42.4593 31.2231V29.982C42.4593 28.9649 42.2674 28.1954 41.8843 27.6729C41.5004 27.151 40.9719 26.8898 40.2975 26.8898C39.3719 26.8898 38.694 27.1816 38.2644 27.7644C37.8347 28.3478 37.62 29.1682 37.62 30.2262C37.62 30.6061 37.6228 31.047 37.6296 31.5486C37.6362 32.0505 37.6462 32.5554 37.6596 33.0643C37.6725 33.5728 37.6894 34.0644 37.7092 34.5391C37.7289 35.0139 37.752 35.4008 37.7786 35.6987C37.4743 35.6713 37.1768 35.6581 36.8861 35.6581C36.595 35.6581 36.2975 35.6713 35.9937 35.6987C36.02 35.3869 36.043 34.9937 36.0629 34.5187C36.0829 34.0442 36.0991 33.5422 36.1124 33.0134C36.1255 32.4842 36.1356 31.9488 36.1423 31.4062C36.1488 30.8639 36.1523 30.3617 36.1523 29.9008V26.2185C36.1523 25.7574 36.1488 25.2556 36.1423 24.713Z" fill="#111827"/>
<path d="M56.5682 27.6731C56.1844 27.1512 55.6558 26.89 54.9814 26.89C54.0558 26.89 53.378 27.1818 52.9483 27.7646C52.5187 28.348 52.3039 29.1684 52.3039 30.2264V31.9556C52.3039 32.5659 52.3137 33.2067 52.3336 33.8783C52.3536 34.5495 52.3962 35.1566 52.4625 35.6989C52.1582 35.6715 51.8607 35.6583 51.57 35.6583C51.2789 35.6583 50.9814 35.6715 50.6777 35.6989C50.7436 35.1566 50.7867 34.5495 50.8065 33.8783C50.8263 33.2067 50.8364 32.5659 50.8364 31.9556V29.8397C50.8364 29.2294 50.8263 28.5888 50.8065 27.9175C50.7867 27.246 50.7436 26.6187 50.6777 26.0355C51.0476 26.1034 51.3451 26.137 51.57 26.137C51.6758 26.137 51.7913 26.1272 51.9172 26.1068C52.0427 26.0864 52.1913 26.0628 52.3634 26.0355C52.3238 26.5781 52.3039 27.1208 52.3039 27.6631H52.3435C52.7135 27.0799 53.1567 26.629 53.6723 26.3103C54.1882 25.9917 54.8031 25.832 55.5169 25.832C55.8869 25.832 56.2606 25.8865 56.6376 25.9947C57.0144 26.1034 57.3548 26.2899 57.6591 26.5541C57.9631 26.8187 58.2109 27.1782 58.4028 27.6325C58.5942 28.0871 58.6903 28.6669 58.6903 29.3719C58.6903 29.9552 58.677 30.5554 58.6507 31.1725C58.6242 31.7897 58.6111 32.4438 58.6111 33.1355V34.4581C58.6111 34.675 58.6141 34.8888 58.6209 35.0987C58.6273 35.3091 58.6374 35.5092 58.6507 35.6989C58.386 35.6715 58.1083 35.6583 57.8177 35.6583C57.5401 35.6583 57.2687 35.6715 57.0043 35.6989C57.031 34.9939 57.0604 34.2681 57.0939 33.5222C57.1267 32.7763 57.1432 32.0101 57.1432 31.2233V29.9822C57.1432 28.9651 56.9515 28.1956 56.5682 27.6731Z" fill="#111827"/>
<path d="M60.626 29.8405C60.626 29.2302 60.6161 28.5896 60.5962 27.9183C60.5765 27.2468 60.5333 26.6195 60.4674 26.0363C60.8373 26.1042 61.135 26.1378 61.3597 26.1378C61.5847 26.1378 61.8822 26.1042 62.2524 26.0363C62.1862 26.6195 62.1434 27.2468 62.1236 27.9183C62.1037 28.5896 62.0938 29.2302 62.0938 29.8405V31.9564C62.0938 32.5667 62.1037 33.2075 62.1236 33.8791C62.1434 34.5503 62.1862 35.1574 62.2524 35.6997C61.9481 35.6723 61.6506 35.6591 61.3597 35.6591C61.0691 35.6591 60.7714 35.6723 60.4674 35.6997C60.5333 35.1574 60.5765 34.5503 60.5962 33.8791C60.6161 33.2075 60.626 32.5667 60.626 31.9564V29.8405ZM60.3484 22.4964C60.3484 22.2117 60.4476 21.9676 60.6459 21.7638C60.8441 21.5605 61.0823 21.459 61.3597 21.459C61.6375 21.459 61.8756 21.5605 62.0739 21.7638C62.2721 21.9676 62.3714 22.2117 62.3714 22.4964C62.3714 22.7812 62.2721 23.0253 62.0739 23.2287C61.8756 23.4324 61.6375 23.5339 61.3597 23.5339C61.0823 23.5339 60.8441 23.4324 60.6459 23.2287C60.4476 23.0253 60.3484 22.7812 60.3484 22.4964Z" fill="#111827"/>
<path d="M69.9322 27.6731C69.5484 27.1512 69.0197 26.89 68.3454 26.89C67.4197 26.89 66.7419 27.1818 66.3122 27.7646C65.8826 28.348 65.6679 29.1684 65.6679 30.2264V31.9556C65.6679 32.5659 65.6776 33.2067 65.6973 33.8783C65.7174 34.5495 65.7601 35.1566 65.8265 35.6989C65.5222 35.6715 65.2246 35.6583 64.9337 35.6583C64.6429 35.6583 64.3453 35.6715 64.0415 35.6989C64.1074 35.1566 64.1506 34.5495 64.1703 33.8783C64.1902 33.2067 64.2001 32.5659 64.2001 31.9556V29.8397C64.2001 29.2294 64.1902 28.5888 64.1703 27.9175C64.1506 27.246 64.1074 26.6187 64.0415 26.0355C64.4114 26.1034 64.7091 26.137 64.9337 26.137C65.0395 26.137 65.1551 26.1272 65.2811 26.1068C65.4066 26.0864 65.5553 26.0628 65.7271 26.0355C65.6876 26.5781 65.6679 27.1208 65.6679 27.6631H65.7074C66.0773 27.0799 66.5205 26.629 67.0361 26.3103C67.552 25.9917 68.1669 25.832 68.8808 25.832C69.2507 25.832 69.6245 25.8865 70.0015 25.9947C70.3782 26.1034 70.7186 26.2899 71.0231 26.5541C71.327 26.8187 71.5749 27.1782 71.7666 27.6325C71.9582 28.0871 72.0542 28.6669 72.0542 29.3719C72.0542 29.9552 72.041 30.5554 72.0146 31.1725C71.988 31.7897 71.9751 32.4438 71.9751 33.1355V34.4581C71.9751 34.675 71.9779 34.8888 71.9847 35.0987C71.9913 35.3091 72.0012 35.5092 72.0146 35.6989C71.7498 35.6715 71.4721 35.6583 71.1817 35.6583C70.9039 35.6583 70.6327 35.6715 70.3683 35.6989C70.3948 34.9939 70.4244 34.2681 70.4577 33.5222C70.4906 32.7763 70.5072 32.0101 70.5072 31.2233V29.9822C70.5072 28.9651 70.3153 28.1956 69.9322 27.6731Z" fill="#111827"/>
<path d="M79.1175 29.0463C79.1175 28.1919 78.9192 27.541 78.5223 27.0933C78.1258 26.6457 77.6031 26.422 76.9556 26.422C76.2416 26.422 75.6862 26.6696 75.2896 27.1645C74.8928 27.6597 74.6946 28.3211 74.6946 29.1482C74.6946 30.0026 74.8762 30.6775 75.24 31.1725C75.6034 31.6677 76.1686 31.915 76.9357 31.915C77.3193 31.915 77.6463 31.837 77.9177 31.681C78.1885 31.5252 78.4134 31.3148 78.5918 31.0502C78.7703 30.7857 78.9024 30.4808 78.9887 30.1347C79.0743 29.7888 79.1175 29.4264 79.1175 29.0463ZM80.1885 37.8555C80.1885 37.0418 79.9569 36.4721 79.4942 36.1465C79.0313 35.821 78.2647 35.6583 77.1936 35.6583C76.2021 35.6583 75.435 35.824 74.8928 36.1567C74.3506 36.4891 74.0797 37.0891 74.0797 37.957C74.0797 38.4181 74.1555 38.8114 74.3078 39.137C74.4597 39.4625 74.6646 39.7271 74.9226 39.9304C75.1805 40.134 75.4878 40.283 75.8448 40.3781C76.2021 40.4728 76.5852 40.5205 76.9953 40.5205C77.392 40.5205 77.7816 40.4662 78.1655 40.3577C78.5486 40.249 78.8894 40.0861 79.1869 39.8694C79.4844 39.6526 79.7255 39.3776 79.9109 39.0454C80.0957 38.7129 80.1885 38.3162 80.1885 37.8555ZM73.1474 29.1482C73.1474 28.5784 73.2467 28.0871 73.4449 27.6731C73.6433 27.2597 73.9178 26.9172 74.2681 26.6457C74.6183 26.3748 75.0219 26.1713 75.4777 26.0355C75.934 25.9001 76.4201 25.832 76.9357 25.832C77.1869 25.832 77.4283 25.8391 77.6596 25.8526C77.891 25.8662 78.1852 25.8865 78.5422 25.9135C78.8463 25.9407 79.1175 25.9609 79.3553 25.9744C79.5935 25.9879 79.7849 25.9947 79.9306 25.9947C80.671 25.9947 81.2065 25.9609 81.5369 25.8932C81.5238 25.9609 81.5139 26.0322 81.5076 26.1068C81.5004 26.1814 81.4975 26.2525 81.4975 26.3203C81.4975 26.3884 81.5004 26.4595 81.5076 26.5338C81.5139 26.6086 81.5238 26.68 81.5369 26.7476C81.1535 26.7205 80.7801 26.69 80.4167 26.656C80.0526 26.6224 79.6927 26.5984 79.3356 26.5847L79.296 26.6253C79.7058 26.8564 80.0364 27.2124 80.2876 27.6935C80.5387 28.1749 80.6646 28.6735 80.6646 29.1888C80.6646 30.206 80.3305 31.003 79.6629 31.5791C78.9952 32.156 78.099 32.4438 76.9753 32.4438C76.79 32.4438 76.6085 32.4372 76.4301 32.4235C76.2514 32.4102 76.0696 32.4032 75.8847 32.4032C75.6466 32.4032 75.4249 32.4917 75.2201 32.6678C75.0148 32.8443 74.9125 33.0678 74.9125 33.3391C74.9125 33.6919 74.995 33.9493 75.1605 34.112C75.3257 34.2747 75.6332 34.3632 76.0829 34.3766C76.4529 34.3902 76.8167 34.4005 77.1738 34.4072C77.5307 34.4141 77.8943 34.4242 78.2647 34.4376C78.8725 34.4513 79.3917 34.5259 79.8217 34.6614C80.2511 34.7973 80.6016 34.9803 80.8728 35.2106C81.1435 35.4416 81.3417 35.7055 81.4677 36.004C81.5932 36.3023 81.656 36.6278 81.656 36.9805C81.656 37.4552 81.5669 37.9368 81.3882 38.4251C81.2099 38.9133 80.9323 39.354 80.5556 39.7473C80.1785 40.1408 79.6927 40.4662 79.0976 40.7238C78.5026 40.9815 77.7887 41.1105 76.9556 41.1105C75.6728 41.1105 74.6615 40.8492 73.9209 40.3271C73.1802 39.8051 72.8103 39.0894 72.8103 38.181C72.8103 37.828 72.8729 37.5024 72.9987 37.2045C73.1244 36.906 73.2863 36.6414 73.4845 36.4111C73.6832 36.1802 73.9077 35.9971 74.1592 35.8616C74.41 35.7259 74.668 35.6246 74.9327 35.5564V35.5158C74.5226 35.3937 74.2118 35.1902 74.0004 34.9054C73.7886 34.6208 73.6832 34.282 73.6832 33.8884C73.6832 33.6579 73.7257 33.4477 73.812 33.2576C73.8976 33.0678 74.007 32.8984 74.1393 32.749C74.2711 32.5999 74.4232 32.4778 74.5953 32.3829C74.767 32.2881 74.9327 32.2271 75.0913 32.1998V32.159C74.483 31.888 74.007 31.5049 73.6633 31.0097C73.3191 30.5148 73.1474 29.8944 73.1474 29.1482Z" fill="#111827"/>
<path d="M9.89691 28.209V29.0676H1.28003L1.29059 28.209H9.89691Z" fill="#111827"/>
<path d="M5.17334 24.2207H6.01056V33.0593L5.17334 33.0485V24.2207Z" fill="#111827"/>
<path d="M17.3057 8.36719L18.0458 9.00649L9.74791 19.1107L9.01807 18.4592L17.3057 8.36719Z" fill="#111827"/>
<path d="M49.3287 26.9316L49.8038 27.6922L45.1719 30.7364L44.7024 29.9719L49.3287 26.9316Z" fill="#111827"/>
<path d="M45.7098 30.2033C45.4808 30.3558 45.3208 30.4616 45.2286 30.5201C45.1833 30.4263 45.1373 30.338 45.0919 30.2559C45.0458 30.1737 44.9828 30.0917 44.9028 30.0091C45.1316 29.868 45.3806 29.7159 45.6499 29.5512C45.9184 29.3871 46.1852 29.2166 46.448 29.0403V27.2961C46.448 26.8972 46.4456 26.4626 46.4399 25.9926C46.4343 25.5233 46.4253 25.0588 46.4141 24.601C46.4027 24.1427 46.3882 23.7057 46.3712 23.2884C46.3542 22.8717 46.334 22.5162 46.3113 22.2227C46.6315 22.2815 46.8887 22.311 47.0835 22.311C47.2784 22.311 47.5364 22.2815 47.8566 22.2227C47.8339 22.5162 47.8137 22.8717 47.7968 23.2884C47.7798 23.7057 47.7651 24.1427 47.7539 24.601C47.7416 25.0588 47.7336 25.5233 47.7281 25.9926C47.7223 26.4626 47.7191 26.8972 47.7191 27.2961V28.1948C47.9714 28.0305 48.197 27.8809 48.3975 27.7457C48.5981 27.6105 48.784 27.4786 48.9555 27.3492C48.9555 27.4433 48.9869 27.54 49.0501 27.6398C49.1132 27.7399 49.1851 27.825 49.2652 27.8953C49.1277 27.9896 48.9305 28.1098 48.6725 28.2566C48.4146 28.4035 48.0975 28.6 47.7191 28.8467V30.4847C47.7191 30.8842 47.7223 31.3187 47.7281 31.7885C47.7336 32.2585 47.7416 32.7222 47.7539 33.1803C47.7651 33.6382 47.7798 34.0727 47.7968 34.4838C47.8137 34.8951 47.8339 35.2357 47.8566 35.5056C47.593 35.482 47.3358 35.4704 47.0835 35.4704C46.8321 35.4704 46.5741 35.482 46.3113 35.5056C46.334 35.2357 46.3542 34.8951 46.3712 34.4838C46.3882 34.0727 46.4027 33.6382 46.4141 33.1803C46.4253 32.7222 46.4343 32.2585 46.4399 31.7885C46.4456 31.3187 46.448 30.8842 46.448 30.4847V29.7097C46.1852 29.886 45.9386 30.0506 45.7098 30.2033Z" fill="#111827"/>
</g>
<defs>
<clipPath id="clip0_3116_19215">
<rect width="82" height="41.0484" fill="white" transform="translate(0.5 0.476562)"/>
</clipPath>
</defs>
</svg>
