<svg width="83" height="42" viewBox="0 0 83 42" fill="none" xmlns="http://www.w3.org/2000/svg">
<g clip-path="url(#clip0_3020_7540)">
<path d="M55.4332 16.284C55.3512 16.6406 55.2468 16.901 55.1209 17.0656C54.9949 17.2296 54.8366 17.3436 54.6452 17.4065C54.3866 17.4969 54.1305 17.4544 53.8787 17.4544H50.3843L53.1975 13.5791L52.7968 13.0466L50.3954 9.72055H53.7351C54.4881 9.72055 54.6132 9.68772 54.7596 9.78831C54.9004 9.88486 54.9575 10.0223 54.9982 10.1671C55.0387 10.3117 55.0524 10.4776 55.0753 10.6729H55.2691L55.1366 8.953H48.756V9.14174L52.0996 13.6831L48.756 18.2561V18.4446H55.3097L55.6271 16.326L55.4332 16.284Z" fill="#111827"/>
<path d="M11.146 16.9327C11.4452 17.2763 11.7945 17.5321 12.1948 17.6992C12.5951 17.8662 13.0374 17.9502 13.5225 17.9502C13.9996 17.9502 14.4419 17.8662 14.8502 17.6992C15.2578 17.5321 15.6135 17.2741 15.9167 16.9261C16.2201 16.5786 16.457 16.1382 16.6259 15.6053C16.7959 15.0729 16.8807 14.4409 16.8807 13.7102C16.8807 13.0761 16.8184 12.5211 16.6931 12.0456C16.5677 11.5703 16.3875 11.1564 16.1537 10.8039L11.146 16.9327ZM15.9355 10.5136C15.6362 10.1437 15.2804 9.87749 14.8681 9.71448C14.4556 9.55146 14.0077 9.46979 13.5225 9.46979C13.0535 9.46979 12.6153 9.55356 12.2069 9.72111C11.7986 9.88817 11.4427 10.1456 11.1395 10.4937C10.8363 10.8417 10.6003 11.2816 10.4305 11.8145C10.2605 12.3474 10.1757 12.9791 10.1757 13.7102C10.1757 14.3529 10.2429 14.9186 10.3762 15.407C10.5096 15.8961 10.6932 16.3078 10.9276 16.6425L15.9355 10.5136ZM8.98782 13.7102C8.98782 12.9616 9.09866 12.2948 9.32098 11.7089C9.54345 11.1231 9.85468 10.6281 10.255 10.2229C10.6552 9.81766 11.134 9.50957 11.6918 9.29803C12.249 9.08698 12.8594 8.98121 13.5225 8.98121C14.7022 8.98121 15.6726 9.28946 16.4328 9.90563C16.5047 9.82639 16.5961 9.72111 16.7052 9.58882C16.8145 9.45685 16.9236 9.32262 17.0327 9.18612C17.1418 9.04962 17.2389 8.91992 17.3239 8.79636C17.4087 8.67313 17.463 8.58483 17.4871 8.5321C17.5842 8.65566 17.6974 8.76095 17.8269 8.84892C17.7783 8.88466 17.7055 8.95469 17.6085 9.06046C17.5114 9.16623 17.4087 9.28316 17.2996 9.41043C17.1905 9.5382 17.0812 9.6679 16.9721 9.80035C16.8629 9.93216 16.7716 10.0425 16.6987 10.1304C17.1353 10.5356 17.4726 11.0353 17.7111 11.6296C17.9497 12.2238 18.0694 12.9176 18.0694 13.7102C18.0694 14.4587 17.9577 15.1255 17.7354 15.7111C17.5129 16.2967 17.2025 16.7922 16.8023 17.197C16.402 17.6021 15.9232 17.9036 15.3653 18.1019C14.8074 18.3001 14.1928 18.3993 13.5225 18.3993C12.3824 18.3993 11.4251 18.113 10.6487 17.5403C10.5678 17.6374 10.4734 17.7498 10.3641 17.8775C10.255 18.0053 10.1475 18.1305 10.0423 18.2537C9.93714 18.3773 9.84254 18.4984 9.75772 18.617C9.67273 18.736 9.60967 18.8351 9.57009 18.9142C9.48038 18.7906 9.36796 18.6854 9.23048 18.5974C9.27084 18.5618 9.33722 18.4937 9.43008 18.3926C9.52311 18.2909 9.62417 18.1811 9.73344 18.0624C9.84254 17.9435 9.95338 17.8137 10.0664 17.6726C10.1798 17.5321 10.2809 17.4085 10.3698 17.3028C9.93304 16.9067 9.59437 16.4091 9.35172 15.8102C9.10923 15.2113 8.98782 14.5114 8.98782 13.7102Z" fill="#111827"/>
<path d="M1.38904 7.19322C1.35593 6.33219 1.31983 5.45386 1.27994 4.55872C1.87513 4.58589 2.46671 4.6095 3.05512 4.62987C3.64338 4.65025 4.23527 4.66044 4.83031 4.66044C5.42519 4.66044 6.02685 4.65025 6.63514 4.62987C7.24326 4.6095 7.90452 4.58589 8.6186 4.55872C8.57871 4.762 8.559 4.96562 8.559 5.16907C8.559 5.37235 8.57871 5.5758 8.6186 5.77942C8.26132 5.7385 7.83184 5.70147 7.32919 5.66734C6.82654 5.6337 6.3146 5.60637 5.79208 5.58599C5.26973 5.56578 4.7674 5.5488 4.28493 5.53521C3.80215 5.52179 3.40231 5.51483 3.08492 5.51483C3.07168 5.98966 3.06159 6.44411 3.05512 6.87769C3.04834 7.31209 3.04503 7.74616 3.04503 8.17974C3.04503 8.65473 3.04834 9.09235 3.05512 9.49214C3.06159 9.89241 3.06521 10.3095 3.06521 10.7432C3.93775 10.7432 4.80051 10.7298 5.65318 10.7025C6.50632 10.6756 7.34921 10.6213 8.18233 10.5398C8.12936 10.7432 8.10271 10.9469 8.10271 11.1501C8.10271 11.3536 8.12936 11.557 8.18233 11.7607C7.85155 11.7197 7.47819 11.6893 7.06147 11.6688C6.64523 11.6484 6.21164 11.6318 5.7626 11.6182C5.31293 11.6048 4.85664 11.5978 4.39404 11.5978H3.06521V13.327C3.06521 14.2223 3.08145 15.1038 3.11456 15.9715C3.14736 16.84 3.18394 17.6943 3.22383 18.535C2.91953 18.5078 2.59568 18.4944 2.2518 18.4944C1.90793 18.4944 1.58408 18.5078 1.27994 18.535C1.31983 17.6943 1.35593 16.84 1.38904 15.9715C1.42215 15.1038 1.43855 14.2223 1.43855 13.327V9.82788C1.43855 8.93273 1.42215 8.05457 1.38904 7.19322Z" fill="#111827"/>
<path d="M19.7084 15.4624C19.7084 14.7438 19.7182 14.1301 19.7381 13.6211C19.7579 13.1127 19.7679 12.6078 19.7679 12.1058C19.7679 11.6311 19.7644 11.1158 19.7579 10.5595C19.7512 10.0037 19.7414 9.44053 19.7283 8.87109C20.0588 8.93886 20.3361 8.9725 20.5613 8.9725C20.7725 8.9725 21.0439 8.93886 21.3744 8.87109C21.3083 9.68473 21.2586 10.5766 21.2258 11.5464C21.1924 12.5162 21.1762 13.5094 21.1762 14.5268C21.1762 15.2321 21.2355 15.7713 21.3547 16.144C21.4737 16.517 21.6191 16.7985 21.7911 16.9882C21.976 17.2053 22.2106 17.3851 22.4952 17.5276C22.7792 17.6697 23.113 17.7409 23.4966 17.7409C24.052 17.7409 24.5148 17.6157 24.885 17.3647C25.2549 17.1137 25.5261 16.8053 25.6981 16.4389C25.7906 16.2086 25.8633 16.0117 25.9165 15.849C25.969 15.6864 26.0122 15.4693 26.0453 15.1981C26.0781 14.9267 26.0979 14.5607 26.1047 14.0993C26.1112 13.6384 26.1147 13.0077 26.1147 12.2073V10.4985C26.1147 10.2003 26.1112 9.91551 26.1047 9.64382C26.0979 9.37293 26.0882 9.11498 26.0751 8.87109C26.2205 8.89826 26.359 8.92188 26.4915 8.94225C26.6236 8.96247 26.7624 8.9725 26.908 8.9725C27.0534 8.9725 27.1923 8.96247 27.3248 8.94225C27.4566 8.92188 27.5889 8.89826 27.7211 8.87109C27.6551 9.92878 27.6152 10.9496 27.6021 11.9327C27.5889 12.9162 27.5824 13.957 27.5824 15.0556C27.5824 15.666 27.5889 16.2627 27.6021 16.8459C27.6152 17.4291 27.6352 17.9921 27.6619 18.5343C27.3971 18.5072 27.1392 18.4937 26.8883 18.4937C26.6369 18.4937 26.3792 18.5072 26.1147 18.5343C26.1277 18.4122 26.1378 18.2837 26.1446 18.148C26.1511 18.0124 26.1544 17.87 26.1544 17.7207V16.8459H26.1147C25.7708 17.4969 25.3279 17.9749 24.786 18.2801C24.2434 18.5853 23.6552 18.7381 23.0206 18.7381C21.9893 18.7381 21.1792 18.4564 20.5912 17.8936C20.0025 17.3308 19.7084 16.5204 19.7084 15.4624Z" fill="#111827"/>
<path d="M35.4378 10.5069C35.054 9.985 34.5253 9.72365 33.851 9.72365C32.9253 9.72365 32.2475 10.0156 31.8179 10.5984C31.3882 11.1818 31.1735 12.0024 31.1735 13.0604V14.7894C31.1735 15.3997 31.1832 16.0405 31.203 16.7121C31.2231 17.3834 31.2657 17.9904 31.3321 18.5327C31.0278 18.5055 30.7303 18.4921 30.4395 18.4921C30.1485 18.4921 29.8509 18.5055 29.5471 18.5327C29.613 17.9904 29.6562 17.3834 29.6759 16.7121C29.6958 16.0405 29.7059 15.3997 29.7059 14.7894V12.6737C29.7059 12.0632 29.6958 11.4224 29.6759 10.7511C29.6562 10.0798 29.613 9.45244 29.5471 8.86942C29.9172 8.93719 30.2147 8.97082 30.4395 8.97082C30.5453 8.97082 30.6609 8.9608 30.7867 8.94058C30.9122 8.9202 31.0609 8.89659 31.2329 8.86942C31.1932 9.41185 31.1735 9.9546 31.1735 10.4969H31.213C31.5831 9.91384 32.0263 9.46279 32.5419 9.14387C33.0578 8.82543 33.6725 8.66565 34.3864 8.66565C34.7565 8.66565 35.1301 8.72031 35.5071 8.82851C35.884 8.93719 36.2244 9.12365 36.5287 9.38791C36.8326 9.6525 37.0805 10.0118 37.2724 10.4663C37.4638 10.9209 37.5598 11.5007 37.5598 12.2056C37.5598 12.789 37.5466 13.3892 37.5202 14.0061C37.4936 14.6236 37.4807 15.2776 37.4807 15.9692V17.2919C37.4807 17.5089 37.4837 17.7226 37.4904 17.9327C37.4969 18.1429 37.507 18.343 37.5202 18.5327C37.2555 18.5055 36.9777 18.4921 36.6873 18.4921C36.4095 18.4921 36.1383 18.5055 35.8739 18.5327C35.9005 17.8277 35.93 17.1019 35.9634 16.356C35.9962 15.6101 36.0128 14.8439 36.0128 14.0571V12.816C36.0128 11.7989 35.8209 11.0294 35.4378 10.5069Z" fill="#111827"/>
<path d="M40.4522 13.9144C40.4522 14.7282 40.5345 15.3995 40.7001 15.9283C40.8652 16.4572 41.0771 16.8815 41.3347 17.2001C41.5926 17.5189 41.8867 17.739 42.2173 17.8611C42.5478 17.9832 42.8721 18.0442 43.1894 18.0442C43.7051 18.0442 44.148 17.912 44.5182 17.6475C44.8881 17.3832 45.1957 17.0373 45.4404 16.61C45.6849 16.1827 45.8634 15.698 45.976 15.1553C46.0881 14.613 46.1445 14.0706 46.1445 13.5277C46.1445 12.2256 45.8998 11.2325 45.4107 10.5476C44.9212 9.86266 44.2008 9.52012 43.2488 9.52012C42.7728 9.52012 42.3595 9.63187 42.0092 9.8557C41.6586 10.0795 41.3675 10.3918 41.1364 10.7916C40.9052 11.1919 40.7329 11.6596 40.6209 12.1954C40.5082 12.7312 40.4522 13.304 40.4522 13.9144ZM46.0851 16.5996C45.979 16.817 45.8372 17.0508 45.6586 17.3017C45.4803 17.5528 45.2551 17.7869 44.9841 18.0036C44.7132 18.2206 44.3924 18.3972 44.0225 18.5324C43.6518 18.6679 43.2221 18.7362 42.7332 18.7362C42.2304 18.7362 41.7379 18.6476 41.2556 18.4714C40.7728 18.2953 40.3431 18.0071 39.9663 17.6069C39.5893 17.2071 39.285 16.6912 39.054 16.0608C38.8224 15.43 38.7068 14.6743 38.7068 13.7923C38.7068 12.9246 38.8324 12.1718 39.0838 11.5341C39.3347 10.8967 39.662 10.3642 40.0653 9.93721C40.4686 9.50977 40.9249 9.19133 41.434 8.98093C41.9428 8.77085 42.4556 8.6654 42.9711 8.6654C44.4387 8.6654 45.4569 9.344 46.0255 10.6999H46.0652V8.70632C46.0652 8.19107 46.0618 7.67225 46.0553 7.15004C46.0485 6.62815 46.0419 6.12956 46.0354 5.65473C46.0286 5.18007 46.0222 4.73241 46.0157 4.31209C46.0089 3.89177 45.9988 3.51867 45.9858 3.19312C46.1445 3.22029 46.2964 3.24406 46.442 3.26427C46.5874 3.28465 46.7328 3.29468 46.8785 3.29468C47.0238 3.29468 47.1659 3.28465 47.3048 3.26427C47.4437 3.24406 47.5989 3.22029 47.771 3.19312C47.7311 3.62735 47.698 4.25452 47.6719 5.07495C47.6452 5.89554 47.6222 6.80088 47.6023 7.7908C47.5826 8.78088 47.5657 9.79829 47.5527 10.8424C47.5394 11.8868 47.5329 12.8431 47.5329 13.7111C47.5329 14.6466 47.5394 15.4879 47.5527 16.2337C47.5657 16.9797 47.579 17.7463 47.5922 18.5324C47.3278 18.5052 47.0699 18.4918 46.819 18.4918C46.581 18.4918 46.3295 18.5052 46.0652 18.5324L46.1247 16.5996H46.0851Z" fill="#111827"/>
<path d="M61.2201 10.3138C61.0283 10.2459 60.8333 10.2119 60.635 10.2119C60.3177 10.2119 60.0331 10.2868 59.7823 10.4357C59.5308 10.585 59.3194 10.7851 59.1477 11.0361C58.9757 11.2871 58.8432 11.5853 58.7508 11.931C58.6583 12.2768 58.6119 12.6467 58.6119 13.0397V15.2776C58.6119 16.1865 58.6152 16.8818 58.622 17.3631C58.6285 17.8447 58.6518 18.2348 58.6914 18.5327C58.4267 18.5055 58.1622 18.4921 57.898 18.4921C57.6071 18.4921 57.3293 18.5055 57.065 18.5327C57.1048 18.0721 57.1275 17.4444 57.1342 16.6508C57.1407 15.8574 57.1443 14.8845 57.1443 13.7315V13.0806C57.1443 12.5514 57.1407 11.9414 57.1342 11.2494C57.1275 10.5578 57.1048 9.76441 57.065 8.86942C57.2102 8.89659 57.349 8.9202 57.4814 8.94058C57.6136 8.9608 57.7525 8.97082 57.898 8.97082C58.017 8.97082 58.1424 8.9608 58.2748 8.94058C58.4068 8.9202 58.5457 8.89659 58.6914 8.86942C58.6382 9.35767 58.6086 9.74403 58.6021 10.0288C58.5954 10.3138 58.592 10.585 58.592 10.8426L58.6318 10.863C59.4118 9.39826 60.2846 8.66565 61.2499 8.66565C61.3691 8.66565 61.4712 8.67293 61.5572 8.68635C61.6432 8.69994 61.7522 8.7339 61.8846 8.78791C61.8181 8.95061 61.7785 9.19821 61.7654 9.53039C61.7522 9.8629 61.7457 10.1647 61.7457 10.4357L61.6068 10.5375C61.5406 10.4563 61.4116 10.3817 61.2201 10.3138Z" fill="#111827"/>
<path d="M14.342 24.3551C14.3089 23.4941 14.2728 22.6158 14.2329 21.7205C14.4046 21.7478 14.5702 21.7714 14.7288 21.7918C14.8874 21.812 15.0462 21.8223 15.2048 21.8223C15.3634 21.8223 15.5222 21.812 15.6808 21.7918C15.8394 21.7714 16.0046 21.7478 16.1768 21.7205C16.1369 22.6158 16.1003 23.4941 16.0675 24.3551C16.0344 25.2165 16.0182 26.0945 16.0182 26.9898C16.0182 28.6986 16.0247 30.1806 16.0379 31.4348C16.051 32.6895 16.0642 33.812 16.0776 34.8019C17.0164 34.8019 17.9153 34.7916 18.775 34.7713C19.6343 34.751 20.56 34.673 21.5519 34.5373C21.4853 34.7815 21.4525 34.985 21.4525 35.1477C21.4525 35.2971 21.4853 35.4802 21.5519 35.6969C20.9433 35.6696 20.3351 35.6563 19.727 35.6563H16.0675C15.4793 35.6563 14.8675 35.6696 14.2329 35.6969C14.2728 34.8562 14.3089 34.0017 14.342 33.1336C14.375 32.2657 14.3915 31.384 14.3915 30.4889V26.9898C14.3915 26.0945 14.375 25.2165 14.342 24.3551Z" fill="#111827"/>
<path d="M22.7985 29.8402C22.7985 29.2298 22.7886 28.5892 22.7687 27.9179C22.7489 27.2464 22.7058 26.6191 22.6399 26.0359C23.0098 26.1038 23.3073 26.1375 23.5322 26.1375C23.7572 26.1375 24.0547 26.1038 24.4249 26.0359C24.3587 26.6191 24.3158 27.2464 24.2961 27.9179C24.2762 28.5892 24.2663 29.2298 24.2663 29.8402V31.956C24.2663 32.5664 24.2762 33.2071 24.2961 33.8788C24.3158 34.5499 24.3587 35.157 24.4249 35.6993C24.1206 35.672 23.8231 35.6587 23.5322 35.6587C23.2414 35.6587 22.9439 35.672 22.6399 35.6993C22.7058 35.157 22.7489 34.5499 22.7687 33.8788C22.7886 33.2071 22.7985 32.5664 22.7985 31.956V29.8402ZM22.5207 22.4961C22.5207 22.2113 22.6201 21.9672 22.8184 21.7635C23.0166 21.5602 23.2548 21.4586 23.5322 21.4586C23.81 21.4586 24.0481 21.5602 24.2464 21.7635C24.4446 21.9672 24.5439 22.2113 24.5439 22.4961C24.5439 22.7809 24.4446 23.0249 24.2464 23.2284C24.0481 23.432 23.81 23.5335 23.5322 23.5335C23.2548 23.5335 23.0166 23.432 22.8184 23.2284C22.6201 23.0249 22.5207 22.7809 22.5207 22.4961Z" fill="#111827"/>
<path d="M32.2815 29.0468C32.2815 28.1924 32.0833 27.5415 31.6865 27.0938C31.29 26.6462 30.7673 26.4225 30.1196 26.4225C29.4058 26.4225 28.8504 26.6701 28.4538 27.165C28.057 27.6602 27.8586 28.3216 27.8586 29.1487C27.8586 30.0031 28.0404 30.678 28.4042 31.173C28.7676 31.6682 29.3328 31.9155 30.0999 31.9155C30.4833 31.9155 30.8105 31.8375 31.0817 31.6815C31.3527 31.5257 31.5775 31.3153 31.7559 31.0507C31.9345 30.7862 32.0665 30.4813 32.1527 30.1352C32.2385 29.7893 32.2815 29.4269 32.2815 29.0468ZM33.3527 37.856C33.3527 37.0423 33.1211 36.4726 32.6584 36.147C32.1953 35.8215 31.4289 35.6588 30.3578 35.6588C29.3663 35.6588 28.599 35.8245 28.057 36.1572C27.5148 36.4895 27.2437 37.0895 27.2437 37.9575C27.2437 38.4186 27.3197 38.8119 27.4719 39.1375C27.6237 39.463 27.8288 39.7276 28.0868 39.9309C28.3447 40.1345 28.652 40.2835 29.009 40.3785C29.3662 40.4733 29.7494 40.521 30.1595 40.521C30.556 40.521 30.9458 40.4667 31.3295 40.3582C31.7128 40.2495 32.0535 40.0866 32.3511 39.8699C32.6486 39.653 32.8897 39.3781 33.0749 39.0459C33.2599 38.7134 33.3527 38.3167 33.3527 37.856ZM26.3116 29.1487C26.3116 28.5789 26.4108 28.0876 26.6091 27.6736C26.8075 27.2602 27.0818 26.9177 27.4323 26.6462C27.7825 26.3753 28.1861 26.1718 28.6419 26.036C29.0982 25.9006 29.5841 25.8325 30.0999 25.8325C30.351 25.8325 30.5923 25.8396 30.8237 25.8531C31.0552 25.8666 31.3494 25.887 31.7064 25.914C32.0103 25.9412 32.2815 25.9614 32.5195 25.9748C32.7575 25.9884 32.9491 25.9952 33.0948 25.9952C33.8352 25.9952 34.3706 25.9614 34.7013 25.8937C34.688 25.9614 34.6782 26.0327 34.6718 26.1073C34.6647 26.1818 34.6617 26.253 34.6617 26.3208C34.6617 26.3889 34.6647 26.46 34.6718 26.5342C34.6782 26.6091 34.688 26.6804 34.7013 26.748C34.3177 26.721 33.9443 26.6905 33.5809 26.6565C33.2168 26.6229 32.8569 26.5989 32.4997 26.5852L32.46 26.6258C32.87 26.8569 33.2004 27.2128 33.4517 27.694C33.7028 28.1754 33.8287 28.674 33.8287 29.1893C33.8287 30.2065 33.4945 31.0035 32.8271 31.5796C32.1592 32.1564 31.2632 32.4443 30.1395 32.4443C29.9542 32.4443 29.7727 32.4377 29.5942 32.4239C29.4156 32.4107 29.2338 32.4037 29.0489 32.4037C28.8106 32.4037 28.5891 32.4922 28.3843 32.6683C28.179 32.8448 28.0767 33.0683 28.0767 33.3396C28.0767 33.6924 28.1591 33.9498 28.3247 34.1125C28.4898 34.2752 28.7974 34.3637 29.2471 34.3771C29.6169 34.3907 29.9808 34.401 30.338 34.4077C30.6949 34.4146 31.0583 34.4246 31.4289 34.4381C32.0367 34.4518 32.5559 34.5264 32.9857 34.6619C33.4153 34.7977 33.7658 34.9808 34.037 35.2111C34.3077 35.4421 34.5059 35.706 34.6319 36.0045C34.7574 36.3028 34.8203 36.6283 34.8203 36.981C34.8203 37.4557 34.7311 37.9373 34.5526 38.4256C34.3741 38.9138 34.0965 39.3545 33.7196 39.7478C33.3426 40.1413 32.8569 40.4667 32.2618 40.7243C31.6666 40.9819 30.9529 41.111 30.1196 41.111C28.837 41.111 27.8255 40.8497 27.0851 40.3276C26.3444 39.8056 25.9743 39.0899 25.9743 38.1815C25.9743 37.8285 26.0371 37.5029 26.1629 37.205C26.2886 36.9065 26.4503 36.6419 26.6487 36.4116C26.8473 36.1807 27.0719 35.9976 27.3233 35.8621C27.5742 35.7264 27.8321 35.6251 28.0969 35.5569V35.5163C27.6868 35.3942 27.3758 35.1907 27.1646 34.9059C26.9527 34.6213 26.8473 34.2825 26.8473 33.8888C26.8473 33.6584 26.8899 33.4481 26.976 33.2581C27.0618 33.0683 27.171 32.8989 27.3035 32.7495C27.4353 32.6004 27.5874 32.4783 27.7595 32.3833C27.9312 32.2886 28.0969 32.2276 28.2555 32.2003V32.1595C27.647 31.8885 27.171 31.5053 26.8275 31.0101C26.4833 30.5153 26.3116 29.8949 26.3116 29.1487Z" fill="#111827"/>
<path d="M36.1421 24.7137C36.1354 24.1713 36.1253 23.6355 36.1122 23.1065C36.0989 22.5774 36.0827 22.0725 36.0627 21.591C36.0428 21.1095 36.0198 20.6992 35.9935 20.3601C36.3635 20.428 36.661 20.4617 36.8859 20.4617C37.1107 20.4617 37.4079 20.428 37.7784 20.3601C37.7518 20.6992 37.7288 21.106 37.7091 21.5806C37.6892 22.0555 37.6723 22.5541 37.6594 23.076C37.646 23.5982 37.6361 24.1238 37.6294 24.6526C37.6227 25.1815 37.6198 25.6697 37.6198 26.1174V27.6636H37.6594C38.0293 27.0804 38.4725 26.6295 38.9882 26.3108C39.504 25.9922 40.1189 25.8326 40.8328 25.8326C41.2027 25.8326 41.5765 25.8871 41.9535 25.9953C42.3302 26.1039 42.6707 26.2904 42.9749 26.5547C43.279 26.8192 43.5269 27.1788 43.7187 27.633C43.9101 28.0877 44.0062 28.6674 44.0062 29.3724C44.0062 29.9557 43.9929 30.5559 43.9666 31.173C43.9399 31.7902 43.9269 32.4444 43.9269 33.1361V34.4587C43.9269 34.6755 43.9299 34.8893 43.9366 35.0992C43.9433 35.3096 43.9532 35.5097 43.9666 35.6994C43.7019 35.6721 43.4241 35.6588 43.1336 35.6588C42.8558 35.6588 42.5846 35.6721 42.3202 35.6994C42.3467 34.9944 42.3764 34.2686 42.4096 33.5227C42.4426 32.7769 42.4591 32.0106 42.4591 31.2238V29.9827C42.4591 28.9657 42.2672 28.1962 41.8841 27.6736C41.5002 27.1518 40.9717 26.8906 40.2973 26.8906C39.3717 26.8906 38.6939 27.1823 38.2642 27.7652C37.8346 28.3485 37.6198 29.1689 37.6198 30.227C37.6198 30.6068 37.6227 31.0477 37.6294 31.5494C37.6361 32.0512 37.646 32.5561 37.6594 33.0651C37.6723 33.5735 37.6892 34.0652 37.7091 34.5398C37.7288 35.0147 37.7518 35.4015 37.7784 35.6994C37.4741 35.6721 37.1766 35.6588 36.8859 35.6588C36.5948 35.6588 36.2973 35.6721 35.9935 35.6994C36.0198 35.3876 36.0428 34.9944 36.0627 34.5195C36.0827 34.045 36.0989 33.543 36.1122 33.0141C36.1253 32.485 36.1354 31.9495 36.1421 31.4069C36.1486 30.8646 36.1521 30.3625 36.1521 29.9016V26.2192C36.1521 25.7582 36.1486 25.2563 36.1421 24.7137Z" fill="#111827"/>
<path d="M56.5681 27.6736C56.1843 27.1517 55.6557 26.8905 54.9813 26.8905C54.0556 26.8905 53.3778 27.1823 52.9482 27.7651C52.5185 28.3485 52.3038 29.1689 52.3038 30.2269V31.9561C52.3038 32.5664 52.3136 33.2072 52.3334 33.8788C52.3535 34.55 52.396 35.1571 52.4624 35.6994C52.1581 35.672 51.8606 35.6588 51.5699 35.6588C51.2788 35.6588 50.9813 35.672 50.6776 35.6994C50.7435 35.1571 50.7866 34.55 50.8064 33.8788C50.8261 33.2072 50.8362 32.5664 50.8362 31.9561V29.8402C50.8362 29.2299 50.8261 28.5893 50.8064 27.918C50.7866 27.2465 50.7435 26.6191 50.6776 26.036C51.0475 26.1039 51.345 26.1375 51.5699 26.1375C51.6756 26.1375 51.7912 26.1277 51.917 26.1073C52.0425 26.0869 52.1912 26.0633 52.3632 26.036C52.3237 26.5786 52.3038 27.1213 52.3038 27.6636H52.3434C52.7134 27.0804 53.1566 26.6295 53.6722 26.3107C54.1881 25.9921 54.803 25.8325 55.5168 25.8325C55.8868 25.8325 56.2605 25.887 56.6375 25.9952C57.0143 26.1039 57.3547 26.2904 57.659 26.5546C57.963 26.8192 58.2108 27.1787 58.4027 27.633C58.5941 28.0876 58.6901 28.6674 58.6901 29.3724C58.6901 29.9557 58.6769 30.5559 58.6506 31.173C58.6241 31.7901 58.611 32.4443 58.611 33.136V34.4586C58.611 34.6755 58.614 34.8893 58.6208 35.0992C58.6272 35.3096 58.6373 35.5097 58.6506 35.6994C58.3858 35.672 58.1082 35.6588 57.8176 35.6588C57.5399 35.6588 57.2686 35.672 57.0042 35.6994C57.0308 34.9944 57.0603 34.2686 57.0937 33.5227C57.1265 32.7768 57.1431 32.0106 57.1431 31.2238V29.9827C57.1431 28.9656 56.9514 28.1961 56.5681 27.6736Z" fill="#111827"/>
<path d="M60.626 29.8402C60.626 29.2298 60.6161 28.5892 60.5962 27.9179C60.5765 27.2464 60.5333 26.6191 60.4674 26.0359C60.8373 26.1038 61.135 26.1375 61.3596 26.1375C61.5846 26.1375 61.8822 26.1038 62.2524 26.0359C62.1861 26.6191 62.1434 27.2464 62.1235 27.9179C62.1037 28.5892 62.0938 29.2298 62.0938 29.8402V31.956C62.0938 32.5664 62.1037 33.2071 62.1235 33.8788C62.1434 34.5499 62.1861 35.157 62.2524 35.6993C61.9481 35.672 61.6505 35.6587 61.3596 35.6587C61.0691 35.6587 60.7714 35.672 60.4674 35.6993C60.5333 35.157 60.5765 34.5499 60.5962 33.8788C60.6161 33.2071 60.626 32.5664 60.626 31.956V29.8402ZM60.3484 22.4961C60.3484 22.2113 60.4475 21.9672 60.6459 21.7635C60.8441 21.5602 61.0823 21.4586 61.3596 21.4586C61.6375 21.4586 61.8755 21.5602 62.0739 21.7635C62.2721 21.9672 62.3714 22.2113 62.3714 22.4961C62.3714 22.7809 62.2721 23.0249 62.0739 23.2284C61.8755 23.432 61.6375 23.5335 61.3596 23.5335C61.0823 23.5335 60.8441 23.432 60.6459 23.2284C60.4475 23.0249 60.3484 22.7809 60.3484 22.4961Z" fill="#111827"/>
<path d="M69.932 27.6736C69.5482 27.1517 69.0196 26.8905 68.3452 26.8905C67.4195 26.8905 66.7417 27.1823 66.3121 27.7651C65.8824 28.3485 65.6677 29.1689 65.6677 30.2269V31.9561C65.6677 32.5664 65.6775 33.2072 65.6972 33.8788C65.7172 34.55 65.7599 35.1571 65.8263 35.6994C65.522 35.672 65.2245 35.6588 64.9336 35.6588C64.6427 35.6588 64.3452 35.672 64.0413 35.6994C64.1072 35.1571 64.1504 34.55 64.1701 33.8788C64.19 33.2072 64.2 32.5664 64.2 31.9561V29.8402C64.2 29.2299 64.19 28.5893 64.1701 27.918C64.1504 27.2465 64.1072 26.6191 64.0413 26.036C64.4112 26.1039 64.7089 26.1375 64.9336 26.1375C65.0394 26.1375 65.1549 26.1277 65.2809 26.1073C65.4064 26.0869 65.5551 26.0633 65.727 26.036C65.6874 26.5786 65.6677 27.1213 65.6677 27.6636H65.7073C66.0772 27.0804 66.5204 26.6295 67.0359 26.3107C67.5518 25.9921 68.1667 25.8325 68.8807 25.8325C69.2505 25.8325 69.6244 25.887 70.0014 25.9952C70.378 26.1039 70.7184 26.2904 71.0229 26.5546C71.3269 26.8192 71.5747 27.1787 71.7665 27.633C71.958 28.0876 72.0541 28.6674 72.0541 29.3724C72.0541 29.9557 72.0408 30.5559 72.0145 31.173C71.9878 31.7901 71.9749 32.4443 71.9749 33.136V34.4586C71.9749 34.6755 71.9777 34.8893 71.9845 35.0992C71.9911 35.3096 72.0011 35.5097 72.0145 35.6994C71.7496 35.672 71.4719 35.6588 71.1815 35.6588C70.9037 35.6588 70.6325 35.672 70.3681 35.6994C70.3946 34.9944 70.4242 34.2686 70.4575 33.5227C70.4905 32.7768 70.507 32.0106 70.507 31.2238V29.9827C70.507 28.9656 70.3151 28.1961 69.932 27.6736Z" fill="#111827"/>
<path d="M79.1174 29.0468C79.1174 28.1924 78.9191 27.5415 78.5222 27.0938C78.1257 26.6462 77.603 26.4225 76.9555 26.4225C76.2415 26.4225 75.6861 26.6701 75.2895 27.165C74.8927 27.6602 74.6945 28.3216 74.6945 29.1487C74.6945 30.0031 74.8761 30.678 75.2399 31.173C75.6033 31.6682 76.1685 31.9155 76.9356 31.9155C77.3192 31.9155 77.6462 31.8375 77.9176 31.6815C78.1884 31.5257 78.4133 31.3153 78.5918 31.0507C78.7702 30.7862 78.9024 30.4813 78.9886 30.1352C79.0742 29.7893 79.1174 29.4269 79.1174 29.0468ZM80.1885 37.856C80.1885 37.0423 79.9568 36.4726 79.4941 36.147C79.0312 35.8215 78.2646 35.6588 77.1935 35.6588C76.202 35.6588 75.4349 35.8245 74.8927 36.1572C74.3505 36.4895 74.0796 37.0895 74.0796 37.9575C74.0796 38.4186 74.1554 38.8119 74.3077 39.1375C74.4596 39.463 74.6645 39.7276 74.9225 39.9309C75.1804 40.1345 75.4877 40.2835 75.8447 40.3785C76.202 40.4733 76.5851 40.521 76.9952 40.521C77.3919 40.521 77.7815 40.4667 78.1654 40.3582C78.5485 40.2495 78.8893 40.0866 79.1868 39.8699C79.4843 39.653 79.7254 39.3781 79.9108 39.0459C80.0956 38.7134 80.1885 38.3167 80.1885 37.856ZM73.1473 29.1487C73.1473 28.5789 73.2466 28.0876 73.4448 27.6736C73.6432 27.2602 73.9177 26.9177 74.268 26.6462C74.6182 26.3753 75.0218 26.1718 75.4776 26.036C75.9339 25.9006 76.42 25.8325 76.9356 25.8325C77.1868 25.8325 77.4282 25.8396 77.6595 25.8531C77.8909 25.8666 78.1851 25.887 78.5421 25.914C78.8462 25.9412 79.1174 25.9614 79.3552 25.9748C79.5934 25.9884 79.7848 25.9952 79.9305 25.9952C80.6709 25.9952 81.2064 25.9614 81.5368 25.8937C81.5237 25.9614 81.5138 26.0327 81.5075 26.1073C81.5003 26.1818 81.4974 26.253 81.4974 26.3208C81.4974 26.3889 81.5003 26.46 81.5075 26.5342C81.5138 26.6091 81.5237 26.6804 81.5368 26.748C81.1534 26.721 80.78 26.6905 80.4166 26.6565C80.0525 26.6229 79.6926 26.5989 79.3355 26.5852L79.2959 26.6258C79.7057 26.8569 80.0363 27.2128 80.2875 27.694C80.5386 28.1754 80.6645 28.674 80.6645 29.1893C80.6645 30.2065 80.3304 31.0035 79.6628 31.5796C78.9951 32.1564 78.0989 32.4443 76.9752 32.4443C76.7899 32.4443 76.6084 32.4377 76.43 32.4239C76.2513 32.4107 76.0695 32.4037 75.8846 32.4037C75.6465 32.4037 75.4248 32.4922 75.22 32.6683C75.0147 32.8448 74.9124 33.0683 74.9124 33.3396C74.9124 33.6924 74.9949 33.9498 75.1604 34.1125C75.3257 34.2752 75.6331 34.3637 76.0828 34.3771C76.4528 34.3907 76.8166 34.401 77.1737 34.4077C77.5306 34.4146 77.8942 34.4246 78.2646 34.4381C78.8724 34.4518 79.3916 34.5264 79.8216 34.6619C80.2511 34.7977 80.6015 34.9808 80.8727 35.2111C81.1435 35.4421 81.3416 35.706 81.4676 36.0045C81.5931 36.3028 81.6559 36.6283 81.6559 36.981C81.6559 37.4557 81.5668 37.9373 81.3882 38.4256C81.2098 38.9138 80.9322 39.3545 80.5555 39.7478C80.1784 40.1413 79.6926 40.4667 79.0975 40.7243C78.5025 40.9819 77.7886 41.111 76.9555 41.111C75.6727 41.111 74.6614 40.8497 73.9208 40.3276C73.1801 39.8056 72.8102 39.0899 72.8102 38.1815C72.8102 37.8285 72.8728 37.5029 72.9986 37.205C73.1243 36.9065 73.2862 36.6419 73.4844 36.4116C73.6831 36.1807 73.9076 35.9976 74.1591 35.8621C74.4099 35.7264 74.6679 35.6251 74.9326 35.5569V35.5163C74.5225 35.3942 74.2117 35.1907 74.0003 34.9059C73.7885 34.6213 73.6831 34.2825 73.6831 33.8888C73.6831 33.6584 73.7256 33.4481 73.8119 33.2581C73.8975 33.0683 74.0069 32.8989 74.1392 32.7495C74.271 32.6004 74.4232 32.4783 74.5952 32.3833C74.7669 32.2886 74.9326 32.2276 75.0912 32.2003V32.1595C74.4829 31.8885 74.0069 31.5053 73.6632 31.0101C73.319 30.5153 73.1473 29.8949 73.1473 29.1487Z" fill="#111827"/>
<path d="M9.89682 28.2095V29.0681H1.27994L1.2905 28.2095H9.89682Z" fill="#111827"/>
<path d="M5.17331 24.2206H6.01053V33.0592L5.17331 33.0483V24.2206Z" fill="#111827"/>
<path d="M17.3056 8.36792L18.0456 9.00722L9.74773 19.1115L9.01788 18.4599L17.3056 8.36792Z" fill="#111827"/>
<path d="M49.3285 26.9314L49.8036 27.692L45.1717 30.7361L44.7022 29.9717L49.3285 26.9314Z" fill="#111827"/>
<path d="M45.7097 30.2042C45.4807 30.3567 45.3207 30.4624 45.2285 30.521C45.1832 30.4272 45.1372 30.3389 45.0918 30.2567C45.0457 30.1746 44.9826 30.0926 44.9027 30.0099C45.1315 29.8689 45.3804 29.7167 45.6497 29.5521C45.9183 29.3879 46.185 29.2175 46.4479 29.0412V27.297C46.4479 26.898 46.4455 26.4635 46.4398 25.9935C46.4341 25.5242 46.4252 25.0597 46.414 24.6018C46.4026 24.1435 46.3881 23.7065 46.3711 23.2893C46.354 22.8725 46.3339 22.517 46.3112 22.2235C46.6314 22.2824 46.8885 22.3118 47.0834 22.3118C47.2783 22.3118 47.5362 22.2824 47.8565 22.2235C47.8338 22.517 47.8136 22.8725 47.7967 23.2893C47.7797 23.7065 47.765 24.1435 47.7538 24.6018C47.7415 25.0597 47.7335 25.5242 47.728 25.9935C47.7221 26.4635 47.719 26.898 47.719 27.297V28.1957C47.9712 28.0314 48.1969 27.8818 48.3974 27.7466C48.598 27.6114 48.7839 27.4794 48.9554 27.35C48.9554 27.4442 48.9868 27.5409 49.05 27.6407C49.1131 27.7408 49.185 27.8258 49.2651 27.8962C49.1276 27.9905 48.9303 28.1106 48.6724 28.2575C48.4145 28.4043 48.0974 28.6008 47.719 28.8476V30.4856C47.719 30.885 47.7221 31.3196 47.728 31.7894C47.7335 32.2594 47.7415 32.723 47.7538 33.1812C47.765 33.639 47.7797 34.0736 47.7967 34.4847C47.8136 34.896 47.8338 35.2365 47.8565 35.5065C47.5928 35.4829 47.3357 35.4712 47.0834 35.4712C46.8319 35.4712 46.574 35.4829 46.3112 35.5065C46.3339 35.2365 46.354 34.896 46.3711 34.4847C46.3881 34.0736 46.4026 33.639 46.414 33.1812C46.4252 32.723 46.4341 32.2594 46.4398 31.7894C46.4455 31.3196 46.4479 30.885 46.4479 30.4856V29.7106C46.185 29.8868 45.9384 30.0515 45.7097 30.2042Z" fill="#111827"/>
</g>
<defs>
<clipPath id="clip0_3020_7540">
<rect width="82" height="41.0484" fill="white" transform="translate(0.5 0.47583)"/>
</clipPath>
</defs>
</svg>
