<svg width="37" height="34" viewBox="0 0 37 34" fill="none" xmlns="http://www.w3.org/2000/svg">
<path d="M18.2862 18.3123C16.2823 18.3123 14.7237 16.6053 14.7237 14.7498C14.7237 12.8201 16.2823 11.1873 18.2862 11.1873C20.2159 11.1873 21.8487 12.7459 21.8487 14.7498C21.8487 16.6795 20.2159 18.3123 18.2862 18.3123ZM15.0948 9.70291C13.462 10.8162 12.2745 12.6717 12.2745 14.7498H2.40342C0.919042 14.7498 -0.194239 13.4881 0.0284172 12.0779C0.696386 7.55056 2.99717 3.54275 6.33701 0.722439C7.37607 -0.168186 9.08311 0.128689 9.82529 1.31619L15.0948 9.70291ZM30.1612 0.722439C33.5011 3.54275 35.8019 7.55056 36.4698 12.0779C36.6925 13.4881 35.5792 14.7498 34.169 14.7498H24.2237C24.2237 12.6717 23.1104 10.8162 21.4034 9.70291L26.6729 1.31619C27.4151 0.128689 29.1222 -0.168186 30.1612 0.722439ZM21.4034 19.7967L26.6729 28.1834C27.4151 29.4451 26.9698 31.0779 25.7081 31.5974C23.4073 32.6365 20.8839 33.156 18.2862 33.156C15.6144 33.156 13.0909 32.6365 10.8644 31.5974C9.52842 31.0779 9.08311 29.4451 9.82529 28.1834L15.0948 19.7967C15.9854 20.3904 17.0987 20.6873 18.2862 20.6873C19.3995 20.6873 20.5128 20.3904 21.4034 19.7967Z" fill="#3059E9"/>
</svg>
