<svg width="22" height="24" viewBox="0 0 22 24" fill="none" xmlns="http://www.w3.org/2000/svg">
<path d="M15.25 5.5V19C15.25 19.4219 14.9688 19.8438 14.582 20.0195C14.4062 20.125 14.2656 20.125 14.125 20.125C13.8438 20.125 13.5625 20.0547 13.3516 19.8438L8.60547 15.6602H5.6875C4.73828 15.6602 4 14.8867 4 13.9727V10.5625C4 9.64844 4.73828 8.91016 5.6875 8.91016H8.60547L13.3516 4.69141C13.7031 4.41016 14.1602 4.33984 14.582 4.51562C14.9688 4.65625 15.25 5.07812 15.25 5.5Z" fill="#3059E9"/>
<path d="M1 2.83496L20.1055 21.0003" stroke="#F8F8F8" stroke-width="1.5" stroke-linecap="round"/>
<path d="M1.54297 2L20.9768 20.684" stroke="#3059E9" stroke-width="2" stroke-linecap="round"/>
</svg>
